<svg xmlns="http://www.w3.org/2000/svg" xmlns:xlink="http://www.w3.org/1999/xlink" version="1.1" width="21.651602pt" height="20.48pt" viewBox="0 0 21.651602 20.48">
<path transform="matrix(1,0,0,-1,.769461,20.48)" d="M17.78014 20.3392C18.01214 20.435999 18.24654 20.48 18.47574 20.48 19.76534 20.48 20.882142 19.0844 20.33934 17.7808L12.66334 1.149599C12.292939 .355999 11.59494 0 10.90294 0 9.92174 0 8.95334 .716801 8.95334 1.9172V8.9536H1.916939C-.12986 8.9536-.76946 11.768 1.14934 12.663599L17.78014 20.3392ZM11.503739 1.690399 19.17774 18.3168C19.25334 18.5008 19.168139 18.705599 19.08054 18.8372 18.93574 19.0544 18.69294 19.2004 18.476141 19.2004 18.407341 19.2004 18.34094 19.1868 18.272541 19.1584L1.685339 11.502C1.246539 11.297199 1.25334 10.935199 1.297339 10.737999 1.331339 10.585999 1.458939 10.2328 1.916939 10.2328H10.23214V1.9168C10.23214 1.412399 10.67054 1.2792 10.902539 1.2792 11.174139 1.2792 11.376539 1.417599 11.503739 1.690399Z" fill="#a5d1e3" fill-rule="evenodd"/>
</svg>
