<svg xmlns="http://www.w3.org/2000/svg" xmlns:xlink="http://www.w3.org/1999/xlink" version="1.1" width="163.4pt" height="22.4pt" viewBox="0 0 163.4 22.4">
<path transform="matrix(1,0,0,-1,141,22.4)" d="M20 22.4H2.4C1.074517 22.4 0 21.325484 0 20V2.4C0 1.074516 1.074517 0 2.4 0H9.2625V7.615499H6.1125V11.2H9.2625V13.931999C9.2625 17.0395 11.1125 18.756 13.946 18.756 15.303 18.756 16.722 18.514 16.722 18.514V15.464H15.1585C13.618 15.464 13.1375 14.507999 13.1375 13.527499V11.2H16.5765L16.0265 7.615499H13.1375V0H20C21.325484 0 22.4 1.074516 22.4 2.4V20C22.4 21.325484 21.325484 22.4 20 22.4Z" fill="#a5d1e3"/>
<path transform="matrix(1,0,0,-1,94,22.4)" d="M20 22.4H2.4C1.074517 22.4 0 21.325484 0 20V2.4C0 1.074516 1.074517 0 2.4 0H20C21.325484 0 22.4 1.074516 22.4 2.4V20C22.4 21.325484 21.325484 22.4 20 22.4ZM15.915 17.4375C16.6105 17.16306 17.161059 16.6125 17.435502 15.917L17.4375 15.9165C17.795725 15.012568 17.775908 13.044446 17.76306 11.768539L17.763054 11.76781C17.760931 11.556979 17.758999 11.365067 17.758999 11.2 17.758999 11.034883 17.760933 10.842834 17.763058 10.631819V10.631716 10.631613 10.63151 10.631395C17.775906 9.35482 17.795737 7.384456 17.4375 6.4835 17.16306 5.787998 16.612502 5.23744 15.917 4.962999 15.013952 4.604525 13.049252 4.624449 11.772878 4.637394 11.560935 4.639544 11.367971 4.6415 11.202 4.6415 11.039135 4.6415 10.850211 4.639685 10.642827 4.637691 9.366121 4.625418 7.389775 4.606422 6.4865 4.962999 5.790999 5.23744 5.240441 5.787998 4.966 6.4835 4.607772 7.390695 4.626615 9.370149 4.638758 10.645724 4.640716 10.851439 4.6425 11.038848 4.6425 11.2005 4.6425 11.36264 4.640705 11.550754 4.638734 11.757295 4.626558 13.033495 4.607668 15.013261 4.964 15.917 5.238441 16.6125 5.788999 17.16306 6.4845 17.4375 7.387571 17.795985 9.353084 17.77605 10.629349 17.763106H10.629363 10.629383 10.629409 10.629446C10.841298 17.760956 11.03415 17.758999 11.2 17.758999 11.362721 17.758999 11.551488 17.760815 11.75871 17.76281H11.758759 11.758816 11.758876 11.758939C13.035324 17.775082 15.011713 17.794083 15.915 17.4375ZM8.534 11.199333C8.533632 12.672146 9.727187 13.866447 11.200001 13.867 12.672877 13.866448 13.866897 12.672876 13.868 11.2 13.868 9.727186 12.674147 8.533184 11.201334 8.533 9.72852 8.532816 8.534369 9.726521 8.534 11.199333ZM11.2 7.1C8.935633 7.1 7.1 8.935633 7.1 11.2 7.1 13.464367 8.935633 15.299999 11.2 15.299999 13.464367 15.299999 15.299999 13.464367 15.299999 11.2 15.301329 10.112206 14.869793 9.068583 14.100605 8.299395 13.331417 7.530207 12.287794 7.098671 11.2 7.1ZM14.584491 15.105425C14.732774 14.747835 15.081883 14.514797 15.469 14.514999L15.471 14.513C15.72489 14.51313 15.968277 14.614353 16.14738 14.794302 16.326485 14.974251 16.426564 15.218112 16.425499 15.472 16.425499 15.859116 16.19228 16.208104 15.834612 16.356202 15.476944 16.504296 15.065283 16.422327 14.791622 16.148524 14.517961 15.87472 14.436208 15.463016 14.584491 15.105425ZM17.8515 4.549999C18.786999 5.483 19.0795 6.6185 19.144001 7.9 19.2185 9.221999 19.2185 13.177999 19.144001 14.493999 19.083 15.775499 18.785 16.911499 17.8515 17.8465 16.918 18.7815 15.783 19.0745 14.5015 19.139 13.181 19.2135 9.222 19.2135 7.9015 19.139 6.625 19.078 5.4905 18.782999 4.5515 17.849999 3.6125 16.917 3.3235 15.7815 3.259 14.5 3.1845 13.1805 3.1845 9.221 3.259 7.9 3.32 6.620999 3.6145 5.485001 4.5515 4.549999 5.4885 3.615 6.62 3.321999 7.9015 3.2575 9.222 3.182999 13.181 3.182999 14.5015 3.2575 15.7815 3.318499 16.916 3.617001 17.8515 4.549999Z" fill="#a5d1e3" fill-rule="evenodd"/>
<path transform="matrix(1,0,0,-1,47,22.4)" d="M2.4 22.4H20C21.325 22.4 22.4 21.324999 22.4 20V2.4C22.4 1.074999 21.325 0 20 0H2.4C1.075 0 0 1.074999 0 2.4V20C0 21.324999 1.075 22.4 2.4 22.4ZM17.565 14.035C17.565 14.175 17.565 14.32 17.555 14.46 18.195 14.924999 18.755 15.505 19.2 16.16 18.61 15.905 17.97 15.719999 17.31 15.65 17.99 16.055 18.505002 16.695 18.75 17.455 18.12 17.08 17.41 16.805 16.67 16.665 16.07 17.305 15.22 17.7 14.275 17.7 12.275 17.7 10.61 15.895 11.075 13.67 8.355 13.809999 5.93 15.11 4.315 17.1 4.03 16.615 3.87 16.055 3.87 15.445 3.868204 14.347778 4.416424 13.322681 5.33 12.715 4.795 12.735 4.285 12.884999 3.85 13.129999V13.09C3.85 11.495 4.975 10.175 6.475 9.87 5.955 9.735 5.5 9.735 4.995 9.809999 5.41 8.51 6.62 7.565 8.06 7.535 6.935 6.655 5.525 6.135 3.99 6.135 3.72 6.135 3.465 6.145 3.2 6.175001 4.65 5.245001 6.375 4.705 8.235 4.705 14.265 4.705 17.565 9.7 17.565 14.035Z" fill="#a5d1e3" fill-rule="evenodd"/>
<path transform="matrix(1,0,0,-1,0,22.4)" d="M22.4 20V2.4C22.4 1.074999 21.325 0 20 0H2.4C1.075 0 0 1.074999 0 2.4V20C0 21.324999 1.075 22.4 2.4 22.4H20C21.325 22.4 22.4 21.324999 22.4 20ZM9.34 13.895 14.1 11.19 9.34 8.485V13.895ZM19.92 15.594999C20.3 14.164999 20.300002 11.184999 20.300002 11.184999 20.300002 11.184999 20.3 8.205 19.92 6.78 19.71 5.99 19.095 5.394999 18.31 5.184999 16.894999 4.799999 11.200001 4.799999 11.200001 4.799999 11.200001 4.799999 5.505 4.799999 4.09 5.179998 3.305 5.389999 2.69 5.984999 2.48 6.775 2.1 8.205 2.1 11.184999 2.1 11.184999 2.1 11.184999 2.1 14.169999 2.48 15.594999 2.69 16.384999 3.305 17.005 4.09 17.215 5.505 17.599999 11.200001 17.599999 11.200001 17.599999 11.200001 17.599999 16.894999 17.599999 18.31 17.215 19.095 17.005 19.71 16.384999 19.92 15.594999Z" fill="#a5d1e3" fill-rule="evenodd"/>
</svg>
