<svg xmlns="http://www.w3.org/2000/svg" xmlns:xlink="http://www.w3.org/1999/xlink" version="1.1" width="16pt" height="25.6pt" viewBox="0 0 16 25.6">
<path transform="matrix(1,0,0,-1,0,25.6)" d="M16 23.2V2.4C16 1.074999 14.925 0 13.6 0H2.4C1.075 0 0 1.074999 0 2.4V23.2C0 24.525 1.075 25.6 2.4 25.6H13.6C14.925 25.6 16 24.525 16 23.2ZM9.799999 3.200001H6.2C5.87 3.200001 5.6 3.470001 5.6 3.800001V4.200001C5.6 4.530001 5.87 4.800001 6.2 4.800001H9.799999C10.13 4.800001 10.4 4.530001 10.4 4.200001V3.800001C10.4 3.470001 10.13 3.200001 9.799999 3.200001ZM13.6 24C14.04 24 14.400001 23.64 14.400001 23.2V2.4C14.400001 1.959999 14.04 1.6 13.6 1.6H2.4C1.96 1.6 1.6 1.959999 1.6 2.4V23.2C1.6 23.64 1.96 24 2.4 24H13.6Z" fill="#a5d1e3" fill-rule="evenodd"/>
</svg>
